<svg width="220" height="220" viewBox="0 0 220 220" fill="none" xmlns="http://www.w3.org/2000/svg">
<rect width="220" height="220" fill="#07385F"/>
<path d="M30.06 145.41L47.6591 175.58C50.744 180.869 58.3837 180.873 61.4748 175.588L90.4718 126.013C95.1565 118.003 106.77 118.114 111.302 126.211L124.718 150.185C127.742 155.589 135.495 155.656 138.612 150.305L195.06 53.4103" stroke="white" stroke-width="20"/>
<path d="M67 110C90.7482 110 110 90.7482 110 67C110 43.2518 90.7482 24 67 24C43.2518 24 24 43.2518 24 67C24 90.7482 43.2518 110 67 110Z" fill="#1896A4"/>
<path d="M69.2136 81.3052C67.4684 81.5724 65.654 81.5376 63.8307 81.1167C56.1649 79.3469 51.3849 71.6972 53.1546 64.0315C53.2854 63.4651 53.4609 62.9172 53.6502 62.3806L40.1935 56.8794C39.74 58.0776 39.3667 59.3046 39.0759 60.5523C35.5148 75.9769 45.1346 91.3718 60.5592 94.9328C65.9672 96.1814 71.3669 95.8017 76.2564 94.1274L69.2136 81.3052ZM81.1861 65.5179L61.6656 65.3262L92.7261 79.6398C93.6705 77.7085 94.4269 75.6357 94.932 73.4477C98.4931 58.0231 88.8733 42.6282 73.4487 39.0672C67.2571 37.6377 61.0808 38.3366 55.6624 40.6734L62.8389 53.6245C65.238 52.8757 67.7933 52.7802 70.2416 53.3477C76.247 54.7341 80.4866 59.7337 81.1861 65.5179Z" fill="white"/>
</svg>